<?xml version="1.0" encoding="utf-8"?>
<!-- Generator: Adobe Illustrator 16.0.4, SVG Export Plug-In . SVG Version: 6.00 Build 0)  -->
<!DOCTYPE svg PUBLIC "-//W3C//DTD SVG 1.1//EN" "http://www.w3.org/Graphics/SVG/1.1/DTD/svg11.dtd">
<svg version="1.1" xmlns="http://www.w3.org/2000/svg" xmlns:xlink="http://www.w3.org/1999/xlink" x="0px" y="0px"
	 width="300px" height="140px" viewBox="0 0 450.833 532.559" enable-background="new 0 0 450.833 532.559"
	 xml:space="preserve">
<g id="Robot" display="none">
	<path display="inline" fill="#A6C839" d="M11.807,208.304c0-17.198,13.95-31.149,31.151-31.149
		c17.204,0,31.153,13.951,31.153,31.149v130.466c0,17.209-13.95,31.146-31.153,31.146c-17.202,0-31.151-13.937-31.151-31.146
		V208.304z M439.026,208.304c0-17.201-13.943-31.149-31.149-31.149c-17.201,0-31.151,13.948-31.151,31.149v130.466
		c0,17.209,13.95,31.146,31.151,31.146c17.206,0,31.149-13.937,31.149-31.146V208.304z M204.389,418.448 M204.389,418.448
		 M204.389,418.448h42.056v69.011c0,17.211,13.946,31.153,31.151,31.153c17.196,0,31.151-13.942,31.151-31.153v-69.011h23.854
		c17.207,0,32.102-14.879,32.102-33.252V183.04H86.187v202.156c0,18.373,14.883,33.252,34.409,33.252c0,0,21.497,0,21.496,0v69.011
		c0,17.211,13.948,31.153,31.149,31.153c17.204,0,31.149-13.942,31.149-31.153V418.448 M365.698,172.221
		c0-48.111-28.854-90.167-71.576-112.23c-0.001,0,21.721-39.631,21.721-39.631c1.149-2.097,0.381-4.727-1.714-5.878
		c-2.096-1.15-4.728-0.382-5.879,1.715l-21.95,40.048h0.003c-18.425-8.159-39.089-12.731-60.92-12.731
		c-21.83,0-42.495,4.572-60.92,12.731h0.005l-21.951-40.048c-1.151-2.098-3.784-2.866-5.878-1.715
		c-2.096,1.151-2.863,3.781-1.715,5.878c0,0,21.722,39.632,21.721,39.631c-42.722,22.063-71.576,64.119-71.576,112.23H365.71"/>
</g>
<g id="Eyes" display="none">
	<path display="inline" fill="#FFFFFF" d="M173.296,109.601c0,6.496-5.27,11.755-11.754,11.755c-6.493,0-11.756-5.259-11.756-11.755
		c0-6.489,5.263-11.754,11.756-11.754C168.026,97.847,173.296,103.111,173.296,109.601 M277.535,109.601
		c0,6.496,5.266,11.755,11.759,11.755c6.483,0,11.753-5.259,11.753-11.755c0-6.489-5.27-11.754-11.753-11.754
		C282.8,97.847,277.535,103.111,277.535,109.601"/>
</g>
<g id="FINAL_ROBOT">
	<g>
		<path fill="#A5C739" d="M42.958,177.155c-17.202,0-31.151,13.951-31.151,31.149v130.466c0,17.209,13.95,31.146,31.151,31.146
			c17.204,0,31.153-13.937,31.153-31.146V208.304C74.111,191.106,60.162,177.155,42.958,177.155z"/>
		<path fill="#A5C739" d="M407.876,177.155c-17.201,0-31.151,13.948-31.151,31.149v130.466c0,17.209,13.95,31.146,31.151,31.146
			c17.206,0,31.149-13.937,31.149-31.146V208.304C439.026,191.104,425.083,177.155,407.876,177.155z"/>
		<path fill="#A5C739" d="M86.187,385.196c0,18.373,14.883,33.252,34.409,33.252c0,0,21.497,0,21.496,0v69.011
			c0,17.211,13.948,31.153,31.149,31.153c17.204,0,31.149-13.942,31.149-31.153v-69.011h42.056v69.011
			c0,17.211,13.946,31.153,31.151,31.153c17.196,0,31.151-13.942,31.151-31.153v-69.011h23.854
			c17.207,0,32.102-14.879,32.102-33.252V183.04H86.187V385.196z"/>
		<path fill="#A5C739" d="M294.122,59.991c-0.001,0,21.721-39.631,21.721-39.631c1.149-2.097,0.381-4.727-1.714-5.878
			c-2.096-1.15-4.728-0.382-5.879,1.715L286.3,56.244c-18.425-8.159-39.088-12.73-60.918-12.73
			c-21.828,0-42.492,4.572-60.917,12.729l-21.95-40.046c-1.151-2.098-3.784-2.866-5.878-1.715c-2.096,1.151-2.863,3.781-1.715,5.878
			c0,0,21.722,39.632,21.721,39.631c-42.722,22.063-71.576,64.119-71.576,112.23h280.63
			C365.698,124.11,336.843,82.054,294.122,59.991z M161.515,121.355c-6.493,0-11.756-5.259-11.756-11.755
			c0-6.489,5.263-11.754,11.756-11.754c6.484,0,11.754,5.265,11.754,11.754C173.269,116.097,167.999,121.355,161.515,121.355z
			 M289.266,121.355c-6.493,0-11.759-5.259-11.759-11.755c0-6.489,5.266-11.754,11.759-11.754c6.483,0,11.753,5.265,11.753,11.754
			C301.019,116.097,295.75,121.355,289.266,121.355z"/>
	</g>
</g>
</svg>
